<svg width="17" height="14" viewBox="0 0 17 14" fill="none" xmlns="http://www.w3.org/2000/svg">
<path fill-rule="evenodd" clip-rule="evenodd" d="M0 1.25C0 0.835786 0.335786 0.5 0.75 0.5H16.25C16.6642 0.5 17 0.835786 17 1.25C17 1.66421 16.6642 2 16.25 2H0.75C0.335786 2 0 1.66421 0 1.25ZM0 7.25C0 6.83579 0.335786 6.5 0.75 6.5H16.25C16.6642 6.5 17 6.83579 17 7.25C17 7.66421 16.6642 8 16.25 8H0.75C0.335786 8 0 7.66421 0 7.25ZM0.75 12.5C0.335786 12.5 0 12.8358 0 13.25C0 13.6642 0.335786 14 0.75 14H16.25C16.6642 14 17 13.6642 17 13.25C17 12.8358 16.6642 12.5 16.25 12.5H0.75Z" fill="#1B1B1B"/>
</svg>
