<svg width="22" height="22" viewBox="0 0 22 22" fill="none" xmlns="http://www.w3.org/2000/svg">
<path d="M10.4298 5.01434L11 6.05641L11.5702 5.01436C11.9082 4.39664 12.472 3.56871 13.3009 2.92764L12.9032 2.41347L13.3009 2.92764C14.1544 2.26754 15.1097 1.93906 16.1562 1.93906C19.08 1.93906 21.35 4.32226 21.35 7.62755C21.35 9.37954 20.6556 10.8813 19.3393 12.4696C18.0066 14.0777 16.087 15.7164 13.6998 17.7508L14.1214 18.2455L13.6998 17.7508L13.6998 17.7508C12.8938 18.4376 11.9776 19.2184 11.0246 20.0518L11.0244 20.052C11.0181 20.0575 11.0096 20.0609 11 20.0609C10.9904 20.0609 10.982 20.0575 10.9757 20.052L10.9753 20.0517C10.0232 19.2191 9.10751 18.4387 8.30249 17.7527L8.30075 17.7512L8.30073 17.7512C5.91331 15.7167 3.99351 14.0778 2.66072 12.4696C1.34439 10.8813 0.65 9.37954 0.65 7.62755C0.65 4.32226 2.92 1.93906 5.84375 1.93906C6.8903 1.93906 7.8456 2.26754 8.69913 2.92764L9.09679 2.41347L8.69913 2.92764C9.52805 3.56871 10.0918 4.39661 10.4298 5.01434Z" stroke="black" stroke-width="1.3"/>
</svg>
