<svg width="8" height="15" viewBox="0 0 8 15" fill="none" xmlns="http://www.w3.org/2000/svg">
<path d="M7.68799 0.00308696L5.77183 0C3.6191 0 2.22791 1.43312 2.22791 3.65125V5.33473H0.301297C0.134815 5.33473 0 5.47025 0 5.6374V8.07656C0 8.24372 0.134969 8.37909 0.301297 8.37909H2.22791V14.5339C2.22791 14.701 2.36272 14.8364 2.5292 14.8364H5.04288C5.20936 14.8364 5.34418 14.7009 5.34418 14.5339V8.37909H7.59683C7.76331 8.37909 7.89813 8.24372 7.89813 8.07656L7.89905 5.6374C7.89905 5.55714 7.86723 5.48028 7.81081 5.42348C7.7544 5.36668 7.67754 5.33473 7.5976 5.33473H5.34418V3.90763C5.34418 3.2217 5.50697 2.8735 6.39687 2.8735L7.68768 2.87303C7.85401 2.87303 7.98882 2.73751 7.98882 2.57051V0.305609C7.98882 0.138759 7.85416 0.00339565 7.68799 0.00308696Z" fill="#E48181"/>
</svg>
