<svg width="16" height="18" viewBox="0 0 16 18" fill="none" xmlns="http://www.w3.org/2000/svg">
<path fill-rule="evenodd" clip-rule="evenodd" d="M2.46327 1.71185V3.4237L1.6383 4.18103C0.586044 5.1471 0.0871977 6.14133 0.00542198 7.43515C-0.0349799 8.07614 0.149814 9.89377 0.579796 13.0824C0.928418 15.6685 1.21373 17.8398 1.21373 17.9077C1.21373 17.9771 4.20514 18.015 8.05151 17.9944L14.8893 17.9579L15.4446 16.8485C15.9728 15.7934 16 15.6755 16 14.4468C16 13.2375 15.9665 13.0861 15.4794 12.0859C14.9929 11.0873 14.9587 10.9329 14.9587 9.73405V8.4508H12.2514H9.54402V7.68149C9.54402 6.38627 9.09919 5.42161 8.00139 4.33596L7.04494 3.39004V1.69509V0H4.75411H2.46327V1.71185ZM6.00365 2.21847V3.30989L4.78882 3.3506L3.57398 3.3913V2.25904V1.12677L4.78882 1.12691L6.00365 1.12705V2.21847ZM7.05466 4.824C7.89365 5.47865 8.4397 6.53007 8.47469 7.55853L8.50274 8.38037L7.86728 8.42234C7.24486 8.46333 7.22668 8.45249 6.97635 7.88924C6.83571 7.5729 6.485 7.0981 6.19691 6.83402C4.95875 5.69922 3.54913 6.17316 2.68972 8.0129C2.27473 8.9015 2.25502 9.02376 2.25502 10.7043C2.25502 12.3393 2.28279 12.5252 2.64488 13.3096C2.85924 13.7741 3.17163 14.3052 3.33907 14.4897C3.69602 14.8833 4.39563 15.2114 4.87739 15.2114C5.1491 15.2114 5.23768 15.304 5.31515 15.6692C5.3686 15.9209 5.50008 16.3012 5.60741 16.5143L5.80247 16.9016H3.99674C2.23711 16.9016 2.18907 16.8934 2.12173 16.5847C2.08369 16.4105 1.79643 14.3206 1.48335 11.9407C0.936471 7.78346 0.922448 7.58431 1.12793 6.86754C1.37312 6.0119 1.90459 5.23414 2.59434 4.7216C3.0439 4.38751 3.17427 4.36624 4.77035 4.36624H6.46806L7.05466 4.824ZM5.4097 7.50008C5.99338 7.96149 6.2108 8.62404 6.21135 9.94236C6.21191 11.0994 6.17206 11.2962 5.79803 11.9846C5.57034 12.4038 5.3432 13.051 5.29321 13.4231C5.20575 14.0741 5.18645 14.098 4.78396 14.0569C3.13428 13.8886 2.60475 9.567 4.02021 7.82487C4.45449 7.2905 4.98708 7.16599 5.4097 7.50008ZM13.9868 10.2114V10.8452H10.6547H7.32261V10.2114V9.57757H10.6547H13.9868V10.2114ZM14.6641 12.7466C15.1568 13.738 15.1568 15.1355 14.6641 16.1269L14.3141 16.8312L10.6349 16.8686L6.95566 16.9061L6.61843 16.1758C6.35991 15.6157 6.28133 15.2106 6.28133 14.4368C6.28133 13.663 6.35991 13.2579 6.61843 12.6977L6.95566 11.9675L10.6349 12.0049L14.3141 12.0424L14.6641 12.7466Z" fill="#1B1B1B"/>
</svg>
