<svg width="15" height="24" viewBox="0 0 15 24" fill="none" xmlns="http://www.w3.org/2000/svg">
<path d="M8.0577 12.3066L8.05752 12.3065C6.61232 10.9347 4.9199 8.82523 4.85922 5.64471L5.83922 5.49546C6.42249 7.49973 8.29173 10.372 13.1834 14.1291C12.5991 13.1309 11.909 11.8615 11.2728 10.4608C10.5213 8.80623 9.83772 6.95268 9.49766 5.13635C9.19843 3.53814 9.15792 1.93029 9.60535 0.503491C9.5176 0.498673 9.41657 0.498349 9.30216 0.505677C8.73687 0.541885 7.81912 0.766797 6.54525 1.60109L6.39155 1.70175C6.38961 1.7032 6.38765 1.70466 6.38567 1.70613C6.2717 1.79117 6.10798 1.91742 5.91304 2.0795C5.52207 2.40457 5.01101 2.86923 4.52466 3.43029C3.52841 4.5796 2.74597 6.00377 3.06216 7.41784L3.06229 7.41844C3.15074 7.81632 3.17443 8.31174 2.8984 8.828C2.62972 9.33051 2.11585 9.77942 1.29183 10.184L1.29035 10.1847C1.25571 10.2016 1.22416 10.2166 1.19529 10.2304C1.05242 10.2986 0.974926 10.3357 0.911211 10.4052C0.875863 10.4437 0.80069 10.5374 0.846214 10.8278C0.849674 10.8405 0.85519 10.8601 0.862737 10.8847C0.87821 10.9351 0.90131 11.004 0.931532 11.0776C0.996439 11.2357 1.06286 11.3371 1.10427 11.3764C1.12417 11.3892 1.16216 11.4152 1.20121 11.4535C1.26579 11.5164 1.33602 11.5951 1.38779 11.6892C1.43917 11.7827 1.5019 11.9475 1.44911 12.1424C1.39491 12.3426 1.25285 12.4514 1.16076 12.5019C1.07127 12.5511 0.981919 12.5729 0.92475 12.5842C0.823099 12.6043 0.705976 12.6114 0.632648 12.6158C0.62435 12.6163 0.616613 12.6168 0.609523 12.6173C0.608619 12.6173 0.607721 12.6174 0.606831 12.6174C0.60723 12.6266 0.607879 12.6368 0.608856 12.648C0.622079 12.7993 0.707641 13.041 0.93165 13.2918L1.2433 13.6406L0.917365 13.9733L0.917279 13.9734L0.91719 13.9735L0.916774 13.9739L0.914028 13.9769C0.91031 13.9808 0.903742 13.988 0.894864 13.998C0.877036 14.0182 0.850323 14.0495 0.818895 14.0901C0.754972 14.1726 0.677082 14.2862 0.613766 14.4155C0.511167 14.625 0.473643 14.813 0.518395 14.9785C0.570269 14.9799 0.644837 14.9771 0.747068 14.9628L1.40222 14.8716L1.31139 15.5259L1.31137 15.5261L1.31134 15.5262L1.31131 15.5265L1.31126 15.5268L1.31094 15.5294L1.30875 15.5477C1.30678 15.565 1.30395 15.5919 1.30094 15.6272C1.29493 15.6978 1.28834 15.8008 1.28669 15.9248C1.28334 16.1764 1.3006 16.4981 1.37523 16.808C1.45067 17.1213 1.57523 17.3833 1.75705 17.56C1.92471 17.7229 2.18025 17.8525 2.61424 17.8385L8.0577 12.3066ZM8.0577 12.3066C10.8451 14.9498 11.8245 17.3518 12.1254 19.0577C12.2765 19.9144 12.2582 20.6055 12.2047 21.0756C12.1779 21.3107 12.1423 21.4905 12.1146 21.608C12.1007 21.6667 12.0889 21.7098 12.0811 21.7364C12.0773 21.7496 12.0744 21.7588 12.0728 21.7637L12.0717 21.7673L12.0716 21.7675C12.0715 21.7677 12.0984 21.8232 12.1527 21.8934L12.0469 21.884C11.9191 23.3099 11.7179 24.0381 11.5359 24.3654C11.5028 24.425 11.4757 24.4614 11.4569 24.483C11.3271 24.4021 11.1511 24.1843 10.9827 23.9032C10.9047 23.773 10.8403 23.65 10.7953 23.5593C10.7763 23.521 10.761 23.4889 10.7499 23.4651M8.0577 12.3066L10.7499 23.4651M0.519515 12.1845C0.529582 12.1933 0.538521 12.2002 0.545588 12.2053C0.551624 12.2098 0.556586 12.2131 0.559848 12.2153L0.565341 12.2188L0.564624 12.2184L0.563389 12.2176L0.561571 12.2165L0.548545 12.2084C0.537418 12.2012 0.518624 12.1889 0.497173 12.172L0.500863 12.1673L0.496438 12.163L0.496502 12.163L0.519515 12.1845ZM0.519515 12.1845C0.517298 12.1811 0.514531 12.1765 0.511442 12.1709C0.510471 12.1692 0.509341 12.167 0.508088 12.1646C0.50763 12.1637 0.507155 12.1628 0.506665 12.1618M0.519515 12.1845L0.506665 12.1618M0.506665 12.1618L0.537523 12.1223L0.538644 12.1209C0.538761 12.1209 0.538878 12.1209 0.538995 12.1209C0.54312 12.1206 0.547266 12.1203 0.551429 12.12C0.567488 12.1189 0.583813 12.1179 0.600243 12.1169C0.853568 12.101 1.13208 12.0835 0.851684 11.811C0.84372 11.803 0.834411 11.7973 0.825072 11.7916C0.818616 11.7876 0.812147 11.7836 0.806097 11.7789L0.506665 12.1618ZM10.7499 23.4651C10.2301 20.8422 9.60476 19.5647 9.03059 18.9479C8.73134 18.6263 8.4329 18.4705 8.16386 18.4192C8.13792 18.4143 8.11269 18.4104 8.08819 18.4074C7.38557 17.5198 6.25693 17.4059 5.30019 17.4674C4.76547 17.5017 4.22807 17.5941 3.76258 17.6759L3.72337 17.6827C3.258 17.7645 2.88981 17.8292 2.6143 17.8385L10.7499 23.4651ZM0.53728 12.121L0.531679 12.1281L0.506108 12.1607L0.53728 12.121ZM0.735669 11.6021C0.735718 11.6021 0.734723 11.6024 0.732541 11.6028C0.734536 11.6023 0.73562 11.6021 0.735669 11.6021ZM12.0756 21.7562C12.2883 21.6561 12.4642 21.6602 12.6042 21.7101C12.5886 21.7771 12.5746 21.8293 12.5642 21.8658L12.0756 21.7562ZM0.61411 12.5399C0.614891 12.5408 0.613906 12.5471 0.60881 12.5562C0.610781 12.5436 0.613329 12.5391 0.61411 12.5399ZM1.11502 11.3857L1.1141 11.385L1.11502 11.3857Z" stroke="#1B1B1B"/>
</svg>
