<svg width="12" height="12" viewBox="0 0 12 12" fill="none" xmlns="http://www.w3.org/2000/svg">
<path d="M1.54026 0H10.4599C11.3069 0 12 0.627137 12 1.54012V10.4599C12 11.3729 11.3069 12 10.4599 12H1.54026C0.692938 12 0 11.3729 0 10.4599V1.54012C0 0.627137 0.692938 0 1.54026 0ZM8.74156 1.33325C8.44438 1.33325 8.20153 1.57622 8.20153 1.87353V3.16661C8.20153 3.46379 8.44438 3.70688 8.74156 3.70688H10.0979C10.3951 3.70688 10.6382 3.46379 10.6382 3.16661V1.87353C10.6382 1.57622 10.3951 1.33325 10.0979 1.33325H8.74156ZM10.6438 5.07476H9.58766C9.68758 5.40102 9.74167 5.74662 9.74167 6.10417C9.74167 8.10017 8.07142 9.71816 6.01146 9.71816C3.95162 9.71816 2.28162 8.10017 2.28162 6.10417C2.28162 5.74637 2.33559 5.40089 2.43563 5.07476H1.33351V10.1437C1.33351 10.406 1.54814 10.6208 1.81058 10.6208H10.167C10.4294 10.6208 10.6441 10.4062 10.6441 10.1437V5.07476H10.6438ZM6.01134 3.63875C4.68041 3.63875 3.60133 4.68418 3.60133 5.97394C3.60133 7.2637 4.68041 8.30913 6.01134 8.30913C7.34238 8.30913 8.42159 7.2637 8.42159 5.97394C8.42159 4.68418 7.34251 3.63875 6.01134 3.63875Z" fill="#E48181"/>
</svg>
