<svg width="14" height="10" viewBox="0 0 14 10" fill="none" xmlns="http://www.w3.org/2000/svg">
<path d="M13.4543 0.858429C12.949 0.24871 12.0159 0 10.234 0H3.76582C1.94315 0 0.994316 0.264753 0.490858 0.913891C0 1.5468 0 2.47935 0 3.77002V6.23003C0 8.73046 0.5824 10 3.76582 10H10.2341C11.7793 10 12.6356 9.78053 13.1895 9.24246C13.7576 8.69068 14 7.78976 14 6.23003V3.77002C14 2.4089 13.962 1.47085 13.4543 0.858429ZM8.98805 5.33965L6.05085 6.89768C5.98518 6.93252 5.91337 6.9498 5.84166 6.9498C5.76046 6.9498 5.67944 6.92761 5.60768 6.88352C5.47256 6.80042 5.39005 6.65177 5.39005 6.49143V3.38536C5.39005 3.2253 5.47233 3.07679 5.60718 2.99364C5.74208 2.91049 5.90985 2.90481 6.04981 2.9786L8.98701 4.5266C9.13645 4.60535 9.23029 4.76192 9.23052 4.93276C9.2307 5.10373 9.13726 5.26054 8.98805 5.33965Z" fill="#E48181"/>
</svg>
